<?xml version="1.0" encoding="UTF-8" standalone="no"?>
<!-- Generator: Adobe Illustrator 18.1.1, SVG Export Plug-In . SVG Version: 6.00 Build 0)  -->

<svg
   xmlns:dc="http://purl.org/dc/elements/1.1/"
   xmlns:cc="http://creativecommons.org/ns#"
   xmlns:rdf="http://www.w3.org/1999/02/22-rdf-syntax-ns#"
   xmlns:svg="http://www.w3.org/2000/svg"
   xmlns="http://www.w3.org/2000/svg"
   xmlns:sodipodi="http://sodipodi.sourceforge.net/DTD/sodipodi-0.dtd"
   xmlns:inkscape="http://www.inkscape.org/namespaces/inkscape"
   version="1.1"
   id="Layer_1"
   x="0px"
   y="0px"
   width="20px"
   height="20px"
   viewBox="0 0 20 20"
   enable-background="new 0 0 20 20"
   xml:space="preserve"
   inkscape:version="0.48.3.1 r9886"
   sodipodi:docname="resize.svg"
   inkscape:export-filename="E:\Stuff\misc\electronics\git\ino-themes\theme\resize@2x.png"
   inkscape:export-xdpi="184.5"
   inkscape:export-ydpi="184.5"><metadata
   id="metadata61"><rdf:RDF><cc:Work
       rdf:about=""><dc:format>image/svg+xml</dc:format><dc:type
         rdf:resource="http://purl.org/dc/dcmitype/StillImage" /><dc:title></dc:title></cc:Work></rdf:RDF></metadata><defs
   id="defs59" /><sodipodi:namedview
   pagecolor="#ffffff"
   bordercolor="#666666"
   borderopacity="1"
   objecttolerance="10"
   gridtolerance="10"
   guidetolerance="10"
   inkscape:pageopacity="0"
   inkscape:pageshadow="2"
   inkscape:window-width="1920"
   inkscape:window-height="1152"
   id="namedview57"
   showgrid="false"
   inkscape:zoom="50.75"
   inkscape:cx="6.9162562"
   inkscape:cy="10"
   inkscape:window-x="0"
   inkscape:window-y="0"
   inkscape:window-maximized="0"
   inkscape:current-layer="Layer_1" />
<rect
   x="0"
   y="0"
   fill="#006468"
   width="20"
   height="20"
   id="rect3"
   style="fill:#122535;fill-opacity:1" />
<rect
   x="7.987"
   y="18"
   fill="#22A2A4"
   width="0.992"
   height="0.992"
   id="rect5" />
<rect
   x="8.979"
   y="17.008"
   fill="#22A2A4"
   width="0.992"
   height="0.992"
   id="rect7" />
<rect
   x="10"
   y="16.016"
   fill="#22A2A4"
   width="0.992"
   height="0.992"
   id="rect9" />
<rect
   x="10.992"
   y="15.024"
   fill="#22A2A4"
   width="0.992"
   height="0.992"
   id="rect11" />
<rect
   x="11.984"
   y="14.032"
   fill="#22A2A4"
   width="0.992"
   height="0.992"
   id="rect13" />
<rect
   x="12.976"
   y="12.985"
   fill="#22A2A4"
   width="0.992"
   height="0.992"
   id="rect15" />
<rect
   x="13.968"
   y="11.993"
   fill="#22A2A4"
   width="0.992"
   height="0.992"
   id="rect17" />
<rect
   x="15.038"
   y="11.001"
   fill="#22A2A4"
   width="0.992"
   height="0.992"
   id="rect19" />
<rect
   x="10.992"
   y="17.991"
   fill="#22A2A4"
   width="0.992"
   height="0.992"
   id="rect21" />
<rect
   x="11.984"
   y="16.999"
   fill="#22A2A4"
   width="0.992"
   height="0.992"
   id="rect23" />
<rect
   x="13.005"
   y="16.007"
   fill="#22A2A4"
   width="0.992"
   height="0.992"
   id="rect25" />
<rect
   x="13.997"
   y="15.015"
   fill="#22A2A4"
   width="0.992"
   height="0.992"
   id="rect27" />
<rect
   x="14.989"
   y="14.023"
   fill="#22A2A4"
   width="0.992"
   height="0.992"
   id="rect29" />
<rect
   x="14.032"
   y="18"
   fill="#22A2A4"
   width="0.992"
   height="0.992"
   id="rect31" />
<rect
   x="15.024"
   y="17.008"
   fill="#22A2A4"
   width="0.992"
   height="0.992"
   id="rect33" />
<rect
   x="16.973"
   y="18"
   fill="#22A2A4"
   width="0.992"
   height="0.992"
   id="rect35" />
<rect
   x="17.965"
   y="17.008"
   fill="#22A2A4"
   width="0.992"
   height="0.992"
   id="rect37" />
<rect
   x="16.045"
   y="16.016"
   fill="#22A2A4"
   width="0.992"
   height="0.992"
   id="rect39" />
<rect
   x="17.037"
   y="15.024"
   fill="#22A2A4"
   width="0.992"
   height="0.992"
   id="rect41" />
<rect
   x="18.029"
   y="14.032"
   fill="#22A2A4"
   width="0.992"
   height="0.992"
   id="rect43" />
<rect
   x="15.981"
   y="12.976"
   fill="#22A2A4"
   width="0.992"
   height="0.992"
   id="rect45" />
<rect
   x="16.973"
   y="11.984"
   fill="#22A2A4"
   width="0.992"
   height="0.992"
   id="rect47" />
<rect
   x="18.043"
   y="10.992"
   fill="#22A2A4"
   width="0.992"
   height="0.992"
   id="rect49" />
<rect
   x="16.03"
   y="10"
   fill="#22A2A4"
   width="0.992"
   height="0.992"
   id="rect51" />
<rect
   x="17.022"
   y="9.008"
   fill="#22A2A4"
   width="0.992"
   height="0.992"
   id="rect53" />
<rect
   x="18.014"
   y="8.016"
   fill="#22A2A4"
   width="0.992"
   height="0.992"
   id="rect55" />
<path
   style="fill:#818b95;fill-opacity:1;fill-rule:evenodd;stroke:none"
   d="m 18.013793,8.5123153 0,-0.4827586 0.492611,0 0.492611,0 0,0.4827586 0,0.4827586 -0.492611,0 -0.492611,0 0,-0.4827586 z"
   id="path3806"
   inkscape:connector-curvature="0" /><path
   style="fill:#818b95;fill-opacity:1;fill-rule:evenodd;stroke:none"
   d="m 17.028571,9.5073892 0,-0.4926109 0.492611,0 0.492611,0 0,0.4926109 0,0.4926108 -0.492611,0 -0.492611,0 0,-0.4926108 z"
   id="path3808"
   inkscape:connector-curvature="0" /><path
   style="fill:#818b95;fill-opacity:1;fill-rule:evenodd;stroke:none"
   d="m 16.04335,10.492611 0,-0.492611 0.482758,0 0.482759,0 0,0.492611 0,0.492611 -0.482759,0 -0.482758,0 0,-0.492611 z"
   id="path3810"
   inkscape:connector-curvature="0" /><path
   style="fill:#818b95;fill-opacity:1;fill-rule:evenodd;stroke:none"
   d="m 15.038424,11.497537 0,-0.492611 0.49261,0 0.492611,0 0,0.492611 0,0.492611 -0.492611,0 -0.49261,0 0,-0.492611 z"
   id="path3812"
   inkscape:connector-curvature="0" /><path
   style="fill:#818b95;fill-opacity:1;fill-rule:evenodd;stroke:none"
   d="m 13.974384,12.492611 0,-0.482759 0.492611,0 0.492611,0 0,0.482759 0,0.482758 -0.492611,0 -0.492611,0 0,-0.482758 z"
   id="path3814"
   inkscape:connector-curvature="0" /><path
   style="fill:#818b95;fill-opacity:1;fill-rule:evenodd;stroke:none"
   d="m 12.989163,13.477833 0,-0.482759 0.482758,0 0.482759,0 0,0.482759 0,0.482758 -0.482759,0 -0.482758,0 0,-0.482758 z"
   id="path3816"
   inkscape:connector-curvature="0" /><path
   style="fill:#818b95;fill-opacity:1;fill-rule:evenodd;stroke:none"
   d="m 11.984236,14.522167 0,-0.482758 0.492611,0 0.492611,0 0,0.482758 0,0.482759 -0.492611,0 -0.492611,0 0,-0.482759 z"
   id="path3818"
   inkscape:connector-curvature="0" /><path
   style="fill:#818b95;fill-opacity:1;fill-rule:evenodd;stroke:none"
   d="m 10.999015,15.517241 0,-0.49261 0.492611,0 0.49261,0 0,0.49261 0,0.492611 -0.49261,0 -0.492611,0 0,-0.492611 z"
   id="path3820"
   inkscape:connector-curvature="0" /><path
   style="fill:#818b95;fill-opacity:1;fill-rule:evenodd;stroke:none"
   d="m 10.013793,16.512315 0,-0.482758 0.482759,0 0.482758,0 0,0.482758 0,0.482759 -0.482758,0 -0.482759,0 0,-0.482759 z"
   id="path3822"
   inkscape:connector-curvature="0" /><path
   style="fill:#818b95;fill-opacity:1;fill-rule:evenodd;stroke:none"
   d="m 8.9891626,17.507389 0,-0.492611 0.4827586,0 0.4827586,0 0,0.492611 0,0.492611 -0.4827586,0 -0.4827586,0 0,-0.492611 z"
   id="path3824"
   inkscape:connector-curvature="0" /><path
   style="fill:#818b95;fill-opacity:1;fill-rule:evenodd;stroke:none"
   d="m 8.0039409,18.492611 0,-0.492611 0.4827586,0 0.4827586,0 0,0.492611 0,0.492611 -0.4827586,0 -0.4827586,0 0,-0.492611 z"
   id="path3826"
   inkscape:connector-curvature="0" /><path
   style="fill:#818b95;fill-opacity:1;fill-rule:evenodd;stroke:none"
   d="m 10.999015,18.482759 0,-0.482759 0.492611,0 0.49261,0 0,0.482759 0,0.482758 -0.49261,0 -0.492611,0 0,-0.482758 z"
   id="path3828"
   inkscape:connector-curvature="0" /><path
   style="fill:#818b95;fill-opacity:1;fill-rule:evenodd;stroke:none"
   d="m 11.984236,17.497537 0,-0.482759 0.492611,0 0.492611,0 0,0.482759 0,0.482759 -0.492611,0 -0.492611,0 0,-0.482759 z"
   id="path3830"
   inkscape:connector-curvature="0" /><path
   style="fill:#818b95;fill-opacity:1;fill-rule:evenodd;stroke:none"
   d="m 13.008867,16.502463 0,-0.492611 0.492611,0 0.492611,0 0,0.492611 0,0.492611 -0.492611,0 -0.492611,0 0,-0.492611 z"
   id="path3832"
   inkscape:connector-curvature="0" /><path
   style="fill:#818b95;fill-opacity:1;fill-rule:evenodd;stroke:none"
   d="m 14.013793,15.507389 0,-0.482758 0.482759,0 0.482758,0 0,0.482758 0,0.482759 -0.482758,0 -0.482759,0 0,-0.482759 z"
   id="path3834"
   inkscape:connector-curvature="0" /><path
   style="fill:#818b95;fill-opacity:1;fill-rule:evenodd;stroke:none"
   d="m 14.999015,14.522167 0,-0.482758 0.482758,0 0.482759,0 0,0.482758 0,0.482759 -0.482759,0 -0.482758,0 0,-0.482759 z"
   id="path3836"
   inkscape:connector-curvature="0" /><path
   style="fill:#818b95;fill-opacity:1;fill-rule:evenodd;stroke:none"
   d="m 16.978023,13.46798 c 0,-0.276354 0.0028,-0.389409 0.0062,-0.251231 0.0034,0.138177 0.0034,0.364285 0,0.502463 -0.0034,0.138177 -0.0062,0.02512 -0.0062,-0.251232 z"
   id="path3838"
   inkscape:connector-curvature="0" /><path
   style="fill:#818b95;fill-opacity:1;fill-rule:evenodd;stroke:none"
   d="m 15.984236,13.477833 0,-0.482759 0.492611,0 0.492611,0 0,0.482759 0,0.482758 -0.492611,0 -0.492611,0 0,-0.482758 z"
   id="path3840"
   inkscape:connector-curvature="0" /><path
   style="fill:#818b95;fill-opacity:1;fill-rule:evenodd;stroke:none"
   d="m 16.989163,12.482759 0,-0.492611 0.482758,0 0.482759,0 0,0.492611 0,0.49261 -0.482759,0 -0.482758,0 0,-0.49261 z"
   id="path3842"
   inkscape:connector-curvature="0" /><path
   style="fill:#818b95;fill-opacity:1;fill-rule:evenodd;stroke:none"
   d="m 18.053202,11.487685 0,-0.482759 0.482759,0 0.482758,0 0,0.482759 0,0.482758 -0.482758,0 -0.482759,0 0,-0.482758 z"
   id="path3844"
   inkscape:connector-curvature="0" /><path
   style="fill:#818b95;fill-opacity:1;fill-rule:evenodd;stroke:none"
   d="m 18.033498,14.522167 0,-0.482758 0.49261,0 0.492611,0 0,0.482758 0,0.482759 -0.492611,0 -0.49261,0 0,-0.482759 z"
   id="path3846"
   inkscape:connector-curvature="0" /><path
   style="fill:#818b95;fill-opacity:1;fill-rule:evenodd;stroke:none"
   d="m 17.048276,15.517241 0,-0.49261 0.482758,0 0.482759,0 0,0.49261 0,0.492611 -0.482759,0 -0.482758,0 0,-0.492611 z"
   id="path3848"
   inkscape:connector-curvature="0" /><path
   style="fill:#818b95;fill-opacity:1;fill-rule:evenodd;stroke:none"
   d="m 16.063054,16.512315 0,-0.482758 0.482759,0 0.482758,0 0,0.482758 0,0.482759 -0.482758,0 -0.482759,0 0,-0.482759 z"
   id="path3850"
   inkscape:connector-curvature="0" /><path
   style="fill:#818b95;fill-opacity:1;fill-rule:evenodd;stroke:none"
   d="m 15.038424,17.507389 0,-0.492611 0.482758,0 0.482759,0 0,0.492611 0,0.492611 -0.482759,0 -0.482758,0 0,-0.492611 z"
   id="path3852"
   inkscape:connector-curvature="0" /><path
   style="fill:#818b95;fill-opacity:1;fill-rule:evenodd;stroke:none"
   d="m 14.033498,18.492611 0,-0.492611 0.49261,0 0.492611,0 0,0.492611 0,0.492611 -0.492611,0 -0.49261,0 0,-0.492611 z"
   id="path3854"
   inkscape:connector-curvature="0" /><path
   style="fill:#818b95;fill-opacity:1;fill-rule:evenodd;stroke:none"
   d="m 16.989163,18.492611 0,-0.492611 0.482758,0 0.482759,0 0,0.492611 0,0.492611 -0.482759,0 -0.482758,0 0,-0.492611 z"
   id="path3856"
   inkscape:connector-curvature="0" /><path
   style="fill:#818b95;fill-opacity:1;fill-rule:evenodd;stroke:none"
   d="m 17.974384,17.507389 0,-0.492611 0.482759,0 0.482758,0 0,0.492611 0,0.492611 -0.482758,0 -0.482759,0 0,-0.492611 z"
   id="path3858"
   inkscape:connector-curvature="0" /></svg>