<?xml version="1.0" encoding="UTF-8" standalone="no"?>
<!-- Generator: Adobe Illustrator 18.1.1, SVG Export Plug-In . SVG Version: 6.00 Build 0)  -->

<svg
   xmlns:dc="http://purl.org/dc/elements/1.1/"
   xmlns:cc="http://creativecommons.org/ns#"
   xmlns:rdf="http://www.w3.org/1999/02/22-rdf-syntax-ns#"
   xmlns:svg="http://www.w3.org/2000/svg"
   xmlns="http://www.w3.org/2000/svg"
   xmlns:sodipodi="http://sodipodi.sourceforge.net/DTD/sodipodi-0.dtd"
   xmlns:inkscape="http://www.inkscape.org/namespaces/inkscape"
   version="1.1"
   id="Layer_1"
   x="0px"
   y="0px"
   width="4px"
   height="33px"
   viewBox="0 0 4 33"
   enable-background="new 0 0 4 33"
   xml:space="preserve"
   inkscape:version="0.48.3.1 r9886"
   sodipodi:docname="tab-unsel-right.svg"
   inkscape:export-filename="E:\Stuff\misc\electronics\git\ino-themes\theme\tab-unsel-right@2x.png"
   inkscape:export-xdpi="180"
   inkscape:export-ydpi="180"><metadata
     id="metadata11"><rdf:RDF><cc:Work
         rdf:about=""><dc:format>image/svg+xml</dc:format><dc:type
           rdf:resource="http://purl.org/dc/dcmitype/StillImage" /><dc:title></dc:title></cc:Work></rdf:RDF></metadata><defs
     id="defs9" /><sodipodi:namedview
     pagecolor="#ffffff"
     bordercolor="#666666"
     borderopacity="1"
     objecttolerance="10"
     gridtolerance="10"
     guidetolerance="10"
     inkscape:pageopacity="0"
     inkscape:pageshadow="2"
     inkscape:window-width="1920"
     inkscape:window-height="1152"
     id="namedview7"
     showgrid="false"
     inkscape:zoom="20.22754"
     inkscape:cx="2.2768329"
     inkscape:cy="13.953135"
     inkscape:window-x="-8"
     inkscape:window-y="-8"
     inkscape:window-maximized="1"
     inkscape:current-layer="Layer_1" /><path
     d="M 2.9679404,35 3,9.1392919 C 3,8.5703688 2.8999352,7.9992953 2.6619171,7.4938253 2.2985751,6.7216391 1.5213731,6 0,6 l 0,29 2.9679404,0 z"
     id="path5"
     inkscape:connector-curvature="0"
     style="fill:#4db7bb" /><rect
     style="fill:#4db7bb;fill-opacity:1;stroke:none"
     id="rect4139"
     width="1"
     height="29"
     x="-0.98000002"
     y="6" /><path
     style="fill:#818b95;fill-opacity:1;fill-rule:evenodd;stroke:none"
     d="m 0.04225568,20.505273 0,-14.4604834 0.2392796,0 c 0.13160377,0 0.41111269,0.043948 0.62113096,0.097661 C 1.7199907,6.3514872 2.2697803,6.7859855 2.6080097,7.4901825 2.9871272,8.279509 2.9590711,7.1348366 2.9590711,21.813283 l 0,13.152473 -1.4584077,0 -1.45840772,0 0,-14.460483 z"
     id="path2983"
     inkscape:connector-curvature="0" /><path
     style="fill:#818b95;fill-opacity:1;fill-rule:evenodd;stroke:none"
     d="m -0.9464953,20.505273 0,-14.4604834 0.46965672,0 0.46965672,0 0,14.4604834 0,14.460483 -0.46965672,0 -0.46965672,0 0,-14.460483 z"
     id="path2985"
     inkscape:connector-curvature="0" /></svg>